<?xml version="1.0" standalone="no"?>
<!DOCTYPE svg PUBLIC "-//W3C//DTD SVG 20010904//EN"
 "http://www.w3.org/TR/2001/REC-SVG-20010904/DTD/svg10.dtd">
<svg version="1.0" xmlns="http://www.w3.org/2000/svg"
 width="899.000000pt" height="652.000000pt" viewBox="0 0 899.000000 652.000000"
 preserveAspectRatio="xMidYMid meet">

<g transform="translate(0.000000,652.000000) scale(0.100000,-0.100000)"
fill="#000000" stroke="none">
<path d="M3153 4090 l-201 -87 -6 28 -5 29 -111 0 c-60 0 -109 -3 -109 -7 1
-5 1 -40 0 -80 l-1 -71 -72 -31 c-168 -70 -650 -280 -655 -285 -3 -2 4 -2 16
1 12 3 21 1 21 -5 0 -6 -8 -13 -17 -15 -10 -3 23 -5 72 -5 l90 -1 305 132 305
132 3 73 3 72 44 0 45 0 0 -51 c0 -37 3 -50 13 -46 42 17 397 171 424 183 32
16 33 15 135 -39 57 -30 153 -81 213 -112 61 -32 164 -87 229 -122 117 -62
121 -63 195 -63 71 1 74 2 51 15 l-25 14 25 1 c23 0 22 1 -10 18 -19 10 -102
54 -185 97 -82 43 -168 88 -190 100 -22 12 -96 52 -165 88 -69 35 -150 78
-180 95 l-55 30 -202 -88z"/>
<path d="M3061 3683 c14 -2 47 -26 73 -52 l48 -48 -30 -22 c-47 -33 -91 -28
-130 15 -25 28 -38 34 -60 31 l-27 -4 26 -2 c14 0 40 -16 59 -36 44 -45 103
-49 140 -10 22 23 31 25 119 27 l96 2 -91 3 -92 4 -51 49 c-38 37 -59 50 -79
49 l-27 -2 26 -4z"/>
<path d="M3285 3673 c31 -5 108 -70 99 -85 -3 -4 18 -8 46 -8 l52 0 -30 -29
c-23 -23 -40 -31 -78 -34 l-49 -3 50 -2 c45 -2 53 2 84 34 l35 35 128 -128
c70 -70 128 -125 128 -121 0 4 -57 64 -126 133 -125 123 -128 125 -172 125
-40 0 -50 5 -89 45 -35 36 -49 45 -76 44 l-32 -2 30 -4z"/>
<path d="M4076 3500 c-51 -56 -87 -138 -93 -211 l-6 -59 -151 0 -151 0 -103
100 -102 100 -68 -2 -67 -2 68 -5 69 -6 89 -90 90 -90 -82 -3 -83 -3 -76 76
c-74 73 -77 75 -125 75 -47 0 -53 3 -110 58 l-60 57 55 -57 54 -58 -116 0
-117 0 -38 35 c-27 25 -46 34 -68 33 l-30 -1 31 -4 c19 -2 44 -18 65 -39 31
-32 36 -34 103 -34 l70 0 -39 -42 -40 -43 45 43 46 42 99 0 100 0 72 -72 73
-72 -22 -23 c-38 -40 -73 -31 -140 37 -33 33 -63 60 -66 60 -4 0 20 -27 53
-60 l59 -60 -73 0 c-72 0 -74 1 -113 40 -35 35 -46 40 -82 38 l-41 -1 41 -4
c32 -3 49 -13 79 -43 l39 -40 111 0 c106 0 113 1 135 25 l23 25 247 0 248 0 6
-31 c3 -17 6 -35 6 -40 0 -5 -107 -9 -239 -9 l-238 0 -43 -46 -42 -46 -35 37
c-32 34 -36 36 -91 32 l-57 -3 56 -2 c47 -2 59 -6 84 -32 l29 -30 -93 0 -92 0
-61 60 c-61 60 -61 60 -122 60 -57 0 -63 2 -106 43 l-45 42 45 -47 c43 -47 45
-48 105 -48 60 0 61 0 115 -55 l54 -55 -94 0 -94 0 -42 46 c-40 42 -45 45 -86
41 l-43 -4 41 -1 c27 -1 47 -9 59 -22 18 -20 18 -21 -10 -50 -35 -36 -22 -40
15 -5 l27 25 18 -20 c16 -18 30 -20 134 -20 l115 0 -44 -45 c-36 -37 -50 -45
-89 -48 l-46 -3 45 -2 c43 -2 49 2 95 48 l49 50 84 0 84 0 40 45 40 45 131 0
131 0 -47 -48 c-26 -26 -47 -52 -47 -56 0 -5 25 16 55 47 l55 57 102 0 103 0
28 -54 c15 -29 41 -66 58 -82 27 -26 30 -27 46 -12 15 16 14 20 -17 54 -71 82
-96 194 -65 300 16 56 73 148 96 156 6 2 3 13 -8 27 l-19 23 -38 -42z"/>
<path d="M3731 3453 c35 -32 79 -73 96 -92 18 -19 33 -29 33 -24 0 6 -37 43
-82 84 -46 41 -84 77 -86 82 -2 4 -9 7 -15 7 -6 0 18 -26 54 -57z"/>
<path d="M4475 3501 c-3 -5 5 -11 17 -13 21 -3 23 -9 26 -80 2 -60 6 -78 17
-78 12 0 15 17 15 80 0 79 0 80 26 80 14 0 23 4 19 10 -8 13 -112 13 -120 1z"/>
<path d="M4620 3493 c1 -43 37 -158 50 -158 8 0 20 24 30 59 l16 60 18 -62 c9
-35 23 -62 30 -62 8 0 19 29 29 75 19 87 21 105 8 105 -6 0 -15 -27 -22 -60
-6 -33 -15 -60 -18 -60 -4 0 -13 26 -21 58 -8 31 -19 56 -25 55 -5 -1 -17 -30
-26 -65 -17 -66 -20 -65 -39 20 -11 49 -30 72 -30 35z"/>
<path d="M4850 3420 l0 -90 55 0 c30 0 55 5 55 10 0 6 -20 10 -45 10 -43 0
-45 1 -45 30 0 28 2 30 40 30 22 0 40 5 40 10 0 6 -18 10 -41 10 -38 0 -40 1
-37 28 3 24 7 27 46 30 61 5 52 22 -13 22 l-55 0 0 -90z"/>
<path d="M5000 3420 c0 -102 17 -124 22 -28 l3 63 40 -63 c22 -34 46 -62 53
-62 9 0 12 25 12 90 0 72 -3 90 -15 90 -10 0 -15 -16 -17 -62 l-3 -62 -38 62
c-21 34 -42 62 -48 62 -5 0 -9 -40 -9 -90z"/>
<path d="M5177 3503 c-4 -3 -7 -44 -7 -90 l0 -83 43 0 c64 0 78 15 79 84 1 50
-2 62 -21 77 -23 18 -81 26 -94 12z m67 -23 c23 -8 26 -15 26 -59 0 -39 -4
-53 -19 -61 -44 -23 -51 -14 -51 60 0 73 2 76 44 60z"/>
<path d="M5320 3500 c0 -6 11 -33 25 -61 17 -33 24 -61 21 -80 -3 -20 0 -29
10 -29 9 0 14 12 14 35 0 20 11 58 25 85 28 55 29 60 15 60 -5 0 -19 -19 -31
-42 l-22 -43 -20 43 c-20 40 -37 55 -37 32z"/>
<path d="M5615 3502 c-76 -26 -97 -91 -46 -143 24 -24 38 -29 75 -29 39 0 46
3 46 20 0 17 -7 20 -40 20 -29 0 -42 5 -50 19 -24 45 1 81 56 81 28 0 35 4 32
18 -3 18 -39 25 -73 14z"/>
<path d="M5720 3415 c0 -77 2 -85 19 -85 15 0 21 8 23 32 4 44 25 47 43 4 10
-24 22 -36 35 -36 24 0 25 15 5 54 -14 26 -14 31 1 48 14 15 15 23 6 43 -10
23 -17 25 -72 25 l-60 0 0 -85z m90 35 c0 -15 -7 -20 -25 -20 -18 0 -25 5 -25
20 0 15 7 20 25 20 18 0 25 -5 25 -20z"/>
<path d="M5890 3415 l0 -85 60 0 c53 0 60 2 60 20 0 17 -7 20 -40 20 -29 0
-40 4 -40 15 0 11 11 15 41 15 33 0 40 3 37 18 -2 12 -14 18 -41 20 -49 4 -44
26 6 30 24 2 37 8 37 18 0 11 -14 14 -60 14 l-60 0 0 -85z"/>
<path d="M6085 3488 c-9 -30 -45 -150 -45 -154 0 -2 11 -4 25 -4 18 0 25 5 25
20 0 16 7 20 31 20 22 0 32 -5 36 -20 3 -13 14 -20 29 -20 13 0 24 3 24 7 0 4
-12 43 -26 85 -26 77 -27 78 -61 78 -18 0 -35 -6 -38 -12z m54 -65 c1 -7 -8
-13 -18 -13 -18 0 -19 3 -9 32 10 28 12 30 19 12 4 -10 8 -25 8 -31z"/>
<path d="M6200 3485 c0 -9 9 -15 25 -15 24 0 25 -2 25 -70 0 -63 2 -70 20 -70
17 0 19 8 22 68 3 61 5 67 26 70 12 2 22 10 22 18 0 11 -16 14 -70 14 -56 0
-70 -3 -70 -15z"/>
<path d="M6380 3415 l0 -85 60 0 c53 0 60 2 60 20 0 17 -7 20 -40 20 -29 0
-40 4 -40 15 0 11 11 15 40 15 33 0 40 3 40 20 0 17 -7 20 -41 20 -52 0 -48
24 4 28 24 2 37 8 37 18 0 11 -14 14 -60 14 l-60 0 0 -85z"/>
<path d="M4150 3428 c-47 -49 -65 -99 -65 -178 1 -61 5 -84 27 -125 14 -27 35
-58 46 -68 20 -18 21 -18 30 0 8 14 5 25 -15 52 -68 89 -61 225 16 295 16 15
18 22 10 33 -16 18 -25 17 -49 -9z"/>
<path d="M2370 3422 c0 -13 17 -19 74 -27 52 -8 66 9 16 19 -16 3 -43 9 -60
12 -17 3 -30 1 -30 -4z"/>
<path d="M4201 3364 c-50 -63 -52 -158 -4 -227 23 -32 28 -36 40 -24 12 12 11
20 -12 53 -23 33 -26 47 -23 92 3 33 13 64 27 83 35 47 9 70 -28 23z"/>
<path d="M2846 3353 c18 -2 44 -17 60 -34 15 -16 32 -29 37 -29 6 0 -7 16 -27
35 -28 26 -45 35 -69 33 l-32 -1 31 -4z"/>
<path d="M4244 3293 c-17 -40 -13 -86 11 -117 25 -33 39 -6 19 36 -15 33 -15
38 0 68 20 41 20 50 0 50 -8 0 -22 -16 -30 -37z"/>
<path d="M5896 3204 c-10 -25 1 -29 14 -5 6 12 7 21 1 21 -5 0 -12 -7 -15 -16z"/>
<path d="M4512 3193 c14 -3 18 -18 21 -71 l3 -67 2 67 c2 60 4 67 25 71 12 2
2 4 -23 4 -25 1 -37 -1 -28 -4z"/>
<path d="M4952 3133 c3 -59 6 -68 23 -71 14 -2 16 0 7 6 -8 5 -13 31 -13 65
-1 32 -5 60 -11 63 -5 3 -8 -21 -6 -63z"/>
<path d="M5524 3189 c-13 -22 -16 -87 -4 -108 14 -27 56 -28 70 -1 13 24 2 27
-14 4 -7 -9 -18 -12 -29 -8 -24 9 -25 102 -1 111 11 4 22 -1 31 -13 14 -19 15
-19 11 1 -4 23 -52 34 -64 14z"/>
<path d="M6330 3130 l0 -70 43 2 c36 1 38 2 10 5 l-33 4 0 65 c0 36 -4 64 -10
64 -6 0 -10 -30 -10 -70z"/>
<path d="M6480 3176 c0 -19 -4 -22 -25 -19 -19 4 -25 0 -31 -21 -3 -14 -3 -37
0 -52 6 -21 11 -25 39 -21 l32 3 1 67 c1 37 -2 67 -7 67 -5 0 -9 -11 -9 -24z
m-5 -66 c0 -51 -29 -48 -33 3 -3 33 -1 38 15 35 13 -2 18 -12 18 -38z"/>
<path d="M4584 3147 c-3 -8 -4 -30 -2 -49 2 -26 8 -34 27 -36 13 -2 28 1 34 7
7 7 2 10 -18 8 -15 -1 -30 4 -32 11 -3 8 6 12 27 12 28 0 31 3 28 28 -2 21 -9
28 -31 30 -17 2 -29 -2 -33 -11z m50 -12 c4 -11 -1 -15 -19 -15 -24 0 -32 10
-18 23 11 12 31 8 37 -8z"/>
<path d="M4674 3146 c-3 -8 -4 -29 -2 -48 3 -29 6 -33 32 -33 17 0 31 6 34 15
4 13 3 13 -11 2 -23 -19 -37 -6 -37 35 0 33 2 35 26 29 17 -5 23 -3 19 4 -9
15 -55 12 -61 -4z"/>
<path d="M4760 3110 c0 -27 5 -50 10 -50 6 0 9 15 7 34 -5 41 5 61 26 53 10
-4 17 -22 20 -49 3 -42 4 -42 5 10 l2 52 -35 0 -35 0 0 -50z"/>
<path d="M4855 3131 c-3 -17 -1 -39 5 -50 20 -38 70 -20 70 25 0 39 -11 54
-40 54 -23 0 -30 -5 -35 -29z m53 -18 c-3 -43 -31 -54 -36 -15 -5 32 4 52 23
52 13 0 15 -9 13 -37z"/>
<path d="M5004 3147 c-3 -8 -4 -30 -2 -49 3 -29 6 -33 33 -33 29 0 30 2 30 45
0 42 -2 45 -28 48 -17 2 -29 -2 -33 -11z m50 -13 c10 -25 7 -52 -6 -60 -16
-10 -36 22 -30 51 5 28 27 33 36 9z"/>
<path d="M5097 3153 c-9 -8 -9 -56 -1 -77 3 -9 17 -16 31 -16 15 0 23 -5 20
-12 -2 -7 -14 -12 -26 -11 -11 2 -21 -2 -21 -7 0 -18 49 -11 60 9 5 11 10 42
10 70 l0 51 -33 0 c-19 0 -37 -3 -40 -7z m51 -40 c-2 -26 -8 -38 -18 -38 -10
0 -16 12 -18 38 -3 32 0 37 18 37 18 0 21 -5 18 -37z"/>
<path d="M5190 3109 c0 -29 3 -49 7 -45 11 11 13 85 3 91 -6 4 -10 -15 -10
-46z"/>
<path d="M5240 3152 c0 -5 10 -8 21 -8 33 1 35 -22 2 -26 -22 -2 -28 -8 -28
-28 0 -21 5 -26 33 -28 l33 -3 -3 48 c-3 44 -5 48 -30 51 -16 2 -28 -1 -28 -6z
m50 -56 c0 -8 -5 -18 -10 -21 -17 -11 -40 3 -34 20 8 19 44 20 44 1z"/>
<path d="M5376 3144 c-10 -25 -7 -59 6 -72 15 -15 45 -16 53 -2 4 6 -3 9 -16
7 -12 -1 -24 4 -26 11 -3 7 3 12 14 12 33 0 46 15 34 39 -14 25 -56 28 -65 5z
m52 -12 c2 -7 -6 -12 -17 -12 -21 0 -27 11 -14 24 9 9 26 2 31 -12z"/>
<path d="M5615 3131 c-3 -17 -1 -39 5 -50 20 -38 70 -20 70 25 0 39 -11 54
-40 54 -23 0 -30 -5 -35 -29z m53 -18 c-3 -43 -31 -54 -36 -15 -5 32 4 52 23
52 13 0 15 -9 13 -37z"/>
<path d="M5710 3109 c0 -27 4 -49 9 -49 5 0 9 15 9 33 0 51 1 57 17 57 11 0
15 -11 15 -39 0 -55 18 -61 22 -9 4 61 31 59 39 -2 l6 -45 1 52 2 51 -60 1
-60 0 0 -50z"/>
<path d="M5858 3135 c-16 -36 3 -75 37 -75 14 0 25 4 25 10 0 5 -10 9 -21 7
-12 -1 -24 4 -26 11 -3 7 5 12 21 12 30 0 40 13 31 40 -9 30 -53 26 -67 -5z
m52 0 c0 -8 -9 -15 -20 -15 -20 0 -26 11 -13 23 12 13 33 7 33 -8z"/>
<path d="M5950 3109 c0 -31 4 -48 10 -44 6 3 10 24 10 45 0 32 4 39 23 43 16
3 13 5 -10 6 l-33 1 0 -51z"/>
<path d="M6027 3154 c-10 -10 -9 -66 2 -82 11 -18 53 -12 59 8 5 13 3 13 -11
2 -23 -19 -37 -6 -37 34 0 36 15 44 39 22 11 -11 13 -10 9 2 -5 16 -49 26 -61
14z"/>
<path d="M6110 3110 c0 -27 5 -50 10 -50 6 0 10 23 10 50 0 28 -4 50 -10 50
-5 0 -10 -22 -10 -50z"/>
<path d="M6156 3144 c-10 -25 -7 -59 6 -72 33 -33 75 5 63 59 -5 24 -12 29
-35 29 -16 0 -30 -7 -34 -16z m49 -34 c0 -51 -29 -48 -33 3 -3 33 -1 38 15 35
13 -2 18 -12 18 -38z"/>
<path d="M6525 3150 c-4 -7 2 -9 19 -4 20 5 26 2 26 -9 0 -9 -10 -17 -22 -19
-17 -2 -24 -11 -26 -30 -3 -26 -1 -28 33 -28 l36 0 -3 48 c-3 43 -5 47 -30 50
-14 2 -29 -2 -33 -8z m45 -60 c0 -11 -6 -20 -14 -20 -18 0 -29 16 -21 30 11
18 35 11 35 -10z"/>
<path d="M2421 3076 c-50 -13 -72 -41 -24 -30 79 18 103 26 103 34 0 12 -23
11 -79 -4z"/>
<path d="M6244 3069 c-3 -6 -1 -16 5 -22 8 -8 11 -5 11 11 0 24 -5 28 -16 11z"/>
<path d="M3552 2979 l-53 -58 -67 -4 -67 -3 65 -2 66 -2 59 60 c32 33 57 61
54 63 -2 2 -28 -22 -57 -54z"/>
<path d="M2530 2965 c0 -5 5 -17 10 -25 5 -8 10 -10 10 -5 0 6 -5 17 -10 25
-5 8 -10 11 -10 5z"/>
<path d="M2461 2798 c12 -24 32 -58 45 -75 l25 -33 48 35 c27 19 52 35 57 35
4 0 27 -21 50 -47 23 -27 44 -46 47 -43 3 3 -18 30 -46 61 l-52 56 -52 -38
-52 -39 -24 33 c-14 17 -32 47 -41 65 -9 17 -19 32 -21 32 -3 0 4 -19 16 -42z"/>
<path d="M2840 2515 c-20 -34 -36 -53 -43 -48 -7 3 -38 24 -70 46 -31 22 -60
38 -63 34 -3 -3 27 -28 67 -56 l73 -51 29 47 c16 27 32 51 36 56 4 4 37 -6 74
-23 69 -31 97 -37 97 -20 0 6 -6 10 -12 10 -7 0 -42 14 -76 30 -35 17 -68 30
-72 30 -5 0 -23 -25 -40 -55z"/>
<path d="M3200 2461 c0 -11 66 -18 120 -13 70 7 43 22 -40 22 -44 0 -80 -4
-80 -9z"/>
<path d="M3012 2360 c4 -14 93 -39 141 -40 50 0 28 18 -35 29 -35 6 -74 14
-87 18 -17 4 -22 2 -19 -7z"/>
<path d="M3453 2353 c-82 -17 -101 -39 -25 -30 65 9 122 26 122 37 0 12 -6 12
-97 -7z"/>
</g>
</svg>
